<svg width="301" height="90" viewBox="0 0 301 90" fill="none" xmlns="http://www.w3.org/2000/svg">
<g filter="url(#filter0_d_5_29)">
<rect x="4.5" y="0.5" width="292" height="81" rx="31.5" stroke="white" shape-rendering="crispEdges"/>
<path d="M120.646 35.3529H121.823V36.5294H120.646V35.3529ZM119.47 35.3529H120.646V36.5294H119.47V35.3529ZM118.293 35.3529H119.47V36.5294H118.293V35.3529ZM117.117 35.3529H118.293V36.5294H117.117V35.3529ZM117.117 34.1765H118.293V35.3529H117.117V34.1765ZM115.94 34.1765H117.117V35.3529H115.94V34.1765ZM118.293 34.1765H119.47V35.3529H118.293V34.1765ZM119.47 34.1765H120.646V35.3529H119.47V34.1765ZM120.646 34.1765H121.823V35.3529H120.646V34.1765ZM120.646 33H121.823V34.1765H120.646V33ZM119.47 33H120.646V34.1765H119.47V33ZM118.293 33H119.47V34.1765H118.293V33ZM118.293 31.8235H119.47V33H118.293V31.8235ZM119.47 31.8235H120.646V33H119.47V31.8235ZM118.293 30.6471H119.47V31.8235H118.293V30.6471ZM117.117 30.6471H118.293V31.8235H117.117V30.6471ZM117.117 31.8235H118.293V33H117.117V31.8235ZM119.47 30.6471H120.646V31.8235H119.47V30.6471ZM115.94 31.8235H117.117V33H115.94V31.8235ZM114.764 33H115.94V34.1765H114.764V33ZM113.587 33H114.764V34.1765H113.587V33ZM115.94 33H117.117V34.1765H115.94V33ZM117.117 33H118.293V34.1765H117.117V33ZM117.117 29.4706H118.293V30.6471H117.117V29.4706ZM115.94 29.4706H117.117V30.6471H115.94V29.4706ZM114.764 29.4706H115.94V30.6471H114.764V29.4706ZM113.587 29.4706H114.764V30.6471H113.587V29.4706ZM112.411 29.4706H113.587V30.6471H112.411V29.4706ZM111.234 29.4706H112.411V30.6471H111.234V29.4706ZM110.058 29.4706H111.234V30.6471H110.058V29.4706ZM108.882 29.4706H110.058V30.6471H108.882V29.4706ZM108.882 30.6471H110.058V31.8235H108.882V30.6471ZM107.705 30.6471H108.882V31.8235H107.705V30.6471ZM106.529 30.6471H107.705V31.8235H106.529V30.6471ZM106.529 31.8235H107.705V33H106.529V31.8235ZM107.705 31.8235H108.882V33H107.705V31.8235ZM108.882 31.8235H110.058V33H108.882V31.8235ZM110.058 31.8235H111.234V33H110.058V31.8235ZM111.234 31.8235H112.411V33H111.234V31.8235ZM112.411 31.8235H113.587V33H112.411V31.8235ZM113.587 31.8235H114.764V33H113.587V31.8235ZM114.764 31.8235H115.94V33H114.764V31.8235ZM115.94 30.6471H117.117V31.8235H115.94V30.6471ZM114.764 30.6471H115.94V31.8235H114.764V30.6471ZM113.587 30.6471H114.764V31.8235H113.587V30.6471ZM112.411 30.6471H113.587V31.8235H112.411V30.6471ZM111.234 30.6471H112.411V31.8235H111.234V30.6471ZM110.058 30.6471H111.234V31.8235H110.058V30.6471ZM106.529 33H107.705V34.1765H106.529V33ZM105.352 33H106.529V34.1765H105.352V33ZM107.705 33H108.882V34.1765H107.705V33ZM108.882 33H110.058V34.1765H108.882V33ZM110.058 33H111.234V34.1765H110.058V33ZM111.234 33H112.411V34.1765H111.234V33ZM112.411 33H113.587V34.1765H112.411V33ZM108.882 34.1765H110.058V35.3529H108.882V34.1765ZM110.058 34.1765H111.234V35.3529H110.058V34.1765ZM107.705 34.1765H108.882V35.3529H107.705V34.1765ZM106.529 34.1765H107.705V35.3529H106.529V34.1765ZM105.352 34.1765H106.529V35.3529H105.352V34.1765ZM105.352 35.3529H106.529V36.5294H105.352V35.3529ZM105.352 36.5294H106.529V37.7059H105.352V36.5294ZM105.352 37.7059H106.529V38.8824H105.352V37.7059ZM105.352 38.8824H106.529V40.0588H105.352V38.8824ZM106.529 37.7059H107.705V38.8824H106.529V37.7059ZM106.529 36.5294H107.705V37.7059H106.529V36.5294ZM106.529 35.3529H107.705V36.5294H106.529V35.3529ZM107.705 35.3529H108.882V36.5294H107.705V35.3529ZM107.705 36.5294H108.882V37.7059H107.705V36.5294ZM107.705 37.7059H108.882V38.8824H107.705V37.7059ZM108.882 37.7059H110.058V38.8824H108.882V37.7059ZM108.882 36.5294H110.058V37.7059H108.882V36.5294ZM108.882 35.3529H110.058V36.5294H108.882V35.3529ZM106.529 38.8824H107.705V40.0588H106.529V38.8824ZM106.529 40.0588H107.705V41.2353H106.529V40.0588ZM106.529 41.2353H107.705V42.4118H106.529V41.2353ZM107.705 41.2353H108.882V42.4118H107.705V41.2353ZM108.882 41.2353H110.058V42.4118H108.882V41.2353ZM108.882 40.0588H110.058V41.2353H108.882V40.0588ZM107.705 40.0588H108.882V41.2353H107.705V40.0588ZM107.705 38.8824H108.882V40.0588H107.705V38.8824ZM108.882 38.8824H110.058V40.0588H108.882V38.8824ZM110.058 37.7059H111.234V38.8824H110.058V37.7059ZM110.058 38.8824H111.234V40.0588H110.058V38.8824ZM110.058 40.0588H111.234V41.2353H110.058V40.0588ZM110.058 41.2353H111.234V42.4118H110.058V41.2353ZM108.882 42.4118H110.058V43.5882H108.882V42.4118ZM110.058 42.4118H111.234V43.5882H110.058V42.4118ZM111.234 42.4118H112.411V43.5882H111.234V42.4118ZM112.411 42.4118H113.587V43.5882H112.411V42.4118ZM113.587 42.4118H114.764V43.5882H113.587V42.4118ZM114.764 42.4118H115.94V43.5882H114.764V42.4118ZM114.764 41.2353H115.94V42.4118H114.764V41.2353ZM114.764 40.0588H115.94V41.2353H114.764V40.0588ZM113.587 38.8824H114.764V40.0588H113.587V38.8824ZM112.411 38.8824H113.587V40.0588H112.411V38.8824ZM111.234 38.8824H112.411V40.0588H111.234V38.8824ZM111.234 40.0588H112.411V41.2353H111.234V40.0588ZM112.411 40.0588H113.587V41.2353H112.411V40.0588ZM112.411 41.2353H113.587V42.4118H112.411V41.2353ZM113.587 41.2353H114.764V42.4118H113.587V41.2353ZM113.587 40.0588H114.764V41.2353H113.587V40.0588ZM111.234 41.2353H112.411V42.4118H111.234V41.2353ZM114.764 38.8824H115.94V40.0588H114.764V38.8824ZM115.94 38.8824H117.117V40.0588H115.94V38.8824ZM117.117 38.8824H118.293V40.0588H117.117V38.8824ZM117.117 40.0588H118.293V41.2353H117.117V40.0588ZM117.117 41.2353H118.293V42.4118H117.117V41.2353ZM115.94 41.2353H117.117V42.4118H115.94V41.2353ZM115.94 40.0588H117.117V41.2353H115.94V40.0588ZM118.293 41.2353H119.47V42.4118H118.293V41.2353ZM119.47 41.2353H120.646V42.4118H119.47V41.2353ZM119.47 40.0588H120.646V41.2353H119.47V40.0588ZM118.293 40.0588H119.47V41.2353H118.293V40.0588ZM117.117 42.4118H118.293V43.5882H117.117V42.4118ZM117.117 43.5882H118.293V44.7647H117.117V43.5882ZM115.94 43.5882H117.117V44.7647H115.94V43.5882ZM115.94 42.4118H117.117V43.5882H115.94V42.4118ZM118.293 43.5882H119.47V44.7647H118.293V43.5882ZM119.47 43.5882H120.646V44.7647H119.47V43.5882ZM119.47 42.4118H120.646V43.5882H119.47V42.4118ZM118.293 42.4118H119.47V43.5882H118.293V42.4118ZM120.646 42.4118H121.823V43.5882H120.646V42.4118ZM120.646 43.5882H121.823V44.7647H120.646V43.5882ZM120.646 44.7647H121.823V45.9412H120.646V44.7647ZM120.646 45.9412H121.823V47.1176H120.646V45.9412ZM119.47 45.9412H120.646V47.1176H119.47V45.9412ZM118.293 45.9412H119.47V47.1176H118.293V45.9412ZM118.293 44.7647H119.47V45.9412H118.293V44.7647ZM117.117 44.7647H118.293V45.9412H117.117V44.7647ZM117.117 45.9412H118.293V47.1176H117.117V45.9412ZM119.47 44.7647H120.646V45.9412H119.47V44.7647ZM120.646 47.1176H121.823V48.2941H120.646V47.1176ZM120.646 48.2941H121.823V49.4706H120.646V48.2941ZM119.47 48.2941H120.646V49.4706H119.47V48.2941ZM119.47 49.4706H120.646V50.6471H119.47V49.4706ZM119.47 50.6471H120.646V51.8235H119.47V50.6471ZM118.293 50.6471H119.47V51.8235H118.293V50.6471ZM117.117 50.6471H118.293V51.8235H117.117V50.6471ZM118.293 49.4706H119.47V50.6471H118.293V49.4706ZM118.293 48.2941H119.47V49.4706H118.293V48.2941ZM119.47 47.1176H120.646V48.2941H119.47V47.1176ZM118.293 47.1176H119.47V48.2941H118.293V47.1176ZM117.117 47.1176H118.293V48.2941H117.117V47.1176ZM115.94 47.1176H117.117V48.2941H115.94V47.1176ZM115.94 48.2941H117.117V49.4706H115.94V48.2941ZM117.117 49.4706H118.293V50.6471H117.117V49.4706ZM117.117 48.2941H118.293V49.4706H117.117V48.2941ZM115.94 49.4706H117.117V50.6471H115.94V49.4706ZM115.94 50.6471H117.117V51.8235H115.94V50.6471ZM117.117 51.8235H118.293V53H117.117V51.8235ZM115.94 51.8235H117.117V53H115.94V51.8235ZM114.764 51.8235H115.94V53H114.764V51.8235ZM113.587 51.8235H114.764V53H113.587V51.8235ZM112.411 51.8235H113.587V53H112.411V51.8235ZM111.234 51.8235H112.411V53H111.234V51.8235ZM110.058 51.8235H111.234V53H110.058V51.8235ZM110.058 50.6471H111.234V51.8235H110.058V50.6471ZM108.882 50.6471H110.058V51.8235H108.882V50.6471ZM108.882 51.8235H110.058V53H108.882V51.8235ZM107.705 50.6471H108.882V51.8235H107.705V50.6471ZM106.529 50.6471H107.705V51.8235H106.529V50.6471ZM106.529 49.4706H107.705V50.6471H106.529V49.4706ZM107.705 49.4706H108.882V50.6471H107.705V49.4706ZM106.529 48.2941H107.705V49.4706H106.529V48.2941ZM105.352 48.2941H106.529V49.4706H105.352V48.2941ZM105.352 47.1176H106.529V48.2941H105.352V47.1176ZM105.352 45.9412H106.529V47.1176H105.352V45.9412ZM106.529 45.9412H107.705V47.1176H106.529V45.9412ZM107.705 45.9412H108.882V47.1176H107.705V45.9412ZM108.882 45.9412H110.058V47.1176H108.882V45.9412ZM108.882 47.1176H110.058V48.2941H108.882V47.1176ZM110.058 47.1176H111.234V48.2941H110.058V47.1176ZM110.058 48.2941H111.234V49.4706H110.058V48.2941ZM111.234 48.2941H112.411V49.4706H111.234V48.2941ZM112.411 48.2941H113.587V49.4706H112.411V48.2941ZM113.587 48.2941H114.764V49.4706H113.587V48.2941ZM114.764 49.4706H115.94V50.6471H114.764V49.4706ZM114.764 48.2941H115.94V49.4706H114.764V48.2941ZM114.764 50.6471H115.94V51.8235H114.764V50.6471ZM113.587 50.6471H114.764V51.8235H113.587V50.6471ZM112.411 50.6471H113.587V51.8235H112.411V50.6471ZM111.234 50.6471H112.411V51.8235H111.234V50.6471ZM108.882 49.4706H110.058V50.6471H108.882V49.4706ZM110.058 49.4706H111.234V50.6471H110.058V49.4706ZM111.234 49.4706H112.411V50.6471H111.234V49.4706ZM112.411 49.4706H113.587V50.6471H112.411V49.4706ZM113.587 49.4706H114.764V50.6471H113.587V49.4706ZM108.882 48.2941H110.058V49.4706H108.882V48.2941ZM107.705 48.2941H108.882V49.4706H107.705V48.2941ZM107.705 47.1176H108.882V48.2941H107.705V47.1176ZM106.529 47.1176H107.705V48.2941H106.529V47.1176ZM129.978 51.8235H131.154V53H129.978V51.8235ZM131.154 51.8235H132.331V53H131.154V51.8235ZM132.331 51.8235H133.507V53H132.331V51.8235ZM133.507 51.8235H134.684V53H133.507V51.8235ZM133.507 50.6471H134.684V51.8235H133.507V50.6471ZM132.331 50.6471H133.507V51.8235H132.331V50.6471ZM131.154 50.6471H132.331V51.8235H131.154V50.6471ZM129.978 50.6471H131.154V51.8235H129.978V50.6471ZM129.978 49.4706H131.154V50.6471H129.978V49.4706ZM129.978 48.2941H131.154V49.4706H129.978V48.2941ZM129.978 47.1176H131.154V48.2941H129.978V47.1176ZM129.978 45.9412H131.154V47.1176H129.978V45.9412ZM129.978 44.7647H131.154V45.9412H129.978V44.7647ZM129.978 43.5882H131.154V44.7647H129.978V43.5882ZM129.978 42.4118H131.154V43.5882H129.978V42.4118ZM131.154 42.4118H132.331V43.5882H131.154V42.4118ZM131.154 41.2353H132.331V42.4118H131.154V41.2353ZM131.154 40.0588H132.331V41.2353H131.154V40.0588ZM132.331 40.0588H133.507V41.2353H132.331V40.0588ZM132.331 41.2353H133.507V42.4118H132.331V41.2353ZM133.507 41.2353H134.684V42.4118H133.507V41.2353ZM133.507 42.4118H134.684V43.5882H133.507V42.4118ZM133.507 43.5882H134.684V44.7647H133.507V43.5882ZM133.507 44.7647H134.684V45.9412H133.507V44.7647ZM133.507 45.9412H134.684V47.1176H133.507V45.9412ZM133.507 47.1176H134.684V48.2941H133.507V47.1176ZM133.507 48.2941H134.684V49.4706H133.507V48.2941ZM133.507 49.4706H134.684V50.6471H133.507V49.4706ZM132.331 49.4706H133.507V50.6471H132.331V49.4706ZM132.331 48.2941H133.507V49.4706H132.331V48.2941ZM132.331 47.1176H133.507V48.2941H132.331V47.1176ZM132.331 45.9412H133.507V47.1176H132.331V45.9412ZM132.331 44.7647H133.507V45.9412H132.331V44.7647ZM132.331 43.5882H133.507V44.7647H132.331V43.5882ZM132.331 42.4118H133.507V43.5882H132.331V42.4118ZM131.154 43.5882H132.331V44.7647H131.154V43.5882ZM131.154 44.7647H132.331V45.9412H131.154V44.7647ZM131.154 45.9412H132.331V47.1176H131.154V45.9412ZM131.154 47.1176H132.331V48.2941H131.154V47.1176ZM131.154 48.2941H132.331V49.4706H131.154V48.2941ZM131.154 49.4706H132.331V50.6471H131.154V49.4706ZM129.978 29.4706H131.154V30.6471H129.978V29.4706ZM129.978 30.6471H131.154V31.8235H129.978V30.6471ZM129.978 33H131.154V34.1765H129.978V33ZM129.978 34.1765H131.154V35.3529H129.978V34.1765ZM129.978 35.3529H131.154V36.5294H129.978V35.3529ZM129.978 36.5294H131.154V37.7059H129.978V36.5294ZM129.978 37.7059H131.154V38.8824H129.978V37.7059ZM129.978 38.8824H131.154V40.0588H129.978V38.8824ZM129.978 40.0588H131.154V41.2353H129.978V40.0588ZM129.978 41.2353H131.154V42.4118H129.978V41.2353ZM131.154 36.5294H132.331V37.7059H131.154V36.5294ZM131.154 35.3529H132.331V36.5294H131.154V35.3529ZM131.154 34.1765H132.331V35.3529H131.154V34.1765ZM131.154 33H132.331V34.1765H131.154V33ZM131.154 31.8235H132.331V33H131.154V31.8235ZM129.978 31.8235H131.154V33H129.978V31.8235ZM131.154 29.4706H132.331V30.6471H131.154V29.4706ZM132.331 29.4706H133.507V30.6471H132.331V29.4706ZM132.331 30.6471H133.507V31.8235H132.331V30.6471ZM133.507 31.8235H134.684V33H133.507V31.8235ZM133.507 30.6471H134.684V31.8235H133.507V30.6471ZM133.507 29.4706H134.684V30.6471H133.507V29.4706ZM133.507 33H134.684V34.1765H133.507V33ZM133.507 34.1765H134.684V35.3529H133.507V34.1765ZM133.507 35.3529H134.684V36.5294H133.507V35.3529ZM133.507 36.5294H134.684V37.7059H133.507V36.5294ZM133.507 37.7059H134.684V38.8824H133.507V37.7059ZM133.507 38.8824H134.684V40.0588H133.507V38.8824ZM133.507 40.0588H134.684V41.2353H133.507V40.0588ZM132.331 38.8824H133.507V40.0588H132.331V38.8824ZM132.331 37.7059H133.507V38.8824H132.331V37.7059ZM132.331 36.5294H133.507V37.7059H132.331V36.5294ZM131.154 37.7059H132.331V38.8824H131.154V37.7059ZM131.154 38.8824H132.331V40.0588H131.154V38.8824ZM132.331 35.3529H133.507V36.5294H132.331V35.3529ZM132.331 31.8235H133.507V33H132.331V31.8235ZM132.331 33H133.507V34.1765H132.331V33ZM132.331 34.1765H133.507V35.3529H132.331V34.1765ZM131.154 30.6471H132.331V31.8235H131.154V30.6471ZM134.684 29.4706H135.86V30.6471H134.684V29.4706ZM134.684 30.6471H135.86V31.8235H134.684V30.6471ZM134.684 31.8235H135.86V33H134.684V31.8235ZM134.684 33H135.86V34.1765H134.684V33ZM135.86 33H137.037V34.1765H135.86V33ZM137.037 33H138.213V34.1765H137.037V33ZM138.213 33H139.39V34.1765H138.213V33ZM138.213 31.8235H139.39V33H138.213V31.8235ZM138.213 30.6471H139.39V31.8235H138.213V30.6471ZM138.213 29.4706H139.39V30.6471H138.213V29.4706ZM137.037 29.4706H138.213V30.6471H137.037V29.4706ZM135.86 29.4706H137.037V30.6471H135.86V29.4706ZM135.86 30.6471H137.037V31.8235H135.86V30.6471ZM137.037 30.6471H138.213V31.8235H137.037V30.6471ZM137.037 31.8235H138.213V33H137.037V31.8235ZM135.86 31.8235H137.037V33H135.86V31.8235ZM128.802 29.4706H129.978V30.6471H128.802V29.4706ZM127.625 29.4706H128.802V30.6471H127.625V29.4706ZM126.449 29.4706H127.625V30.6471H126.449V29.4706ZM125.272 29.4706H126.449V30.6471H125.272V29.4706ZM125.272 30.6471H126.449V31.8235H125.272V30.6471ZM125.272 31.8235H126.449V33H125.272V31.8235ZM126.449 31.8235H127.625V33H126.449V31.8235ZM127.625 33H128.802V34.1765H127.625V33ZM126.449 33H127.625V34.1765H126.449V33ZM125.272 33H126.449V34.1765H125.272V33ZM128.802 33H129.978V34.1765H128.802V33ZM128.802 31.8235H129.978V33H128.802V31.8235ZM128.802 30.6471H129.978V31.8235H128.802V30.6471ZM127.625 30.6471H128.802V31.8235H127.625V30.6471ZM127.625 31.8235H128.802V33H127.625V31.8235ZM126.449 30.6471H127.625V31.8235H126.449V30.6471ZM142.848 51.8235H144.025V53H142.848V51.8235ZM144.025 51.8235H145.201V53H144.025V51.8235ZM145.201 51.8235H146.378V53H145.201V51.8235ZM146.378 51.8235H147.554V53H146.378V51.8235ZM146.378 50.6471H147.554V51.8235H146.378V50.6471ZM146.378 49.4706H147.554V50.6471H146.378V49.4706ZM146.378 48.2941H147.554V49.4706H146.378V48.2941ZM146.378 47.1176H147.554V48.2941H146.378V47.1176ZM145.201 47.1176H146.378V48.2941H145.201V47.1176ZM144.025 47.1176H145.201V48.2941H144.025V47.1176ZM144.025 48.2941H145.201V49.4706H144.025V48.2941ZM144.025 49.4706H145.201V50.6471H144.025V49.4706ZM142.848 49.4706H144.025V50.6471H142.848V49.4706ZM142.848 50.6471H144.025V51.8235H142.848V50.6471ZM144.025 50.6471H145.201V51.8235H144.025V50.6471ZM145.201 50.6471H146.378V51.8235H145.201V50.6471ZM145.201 49.4706H146.378V50.6471H145.201V49.4706ZM145.201 48.2941H146.378V49.4706H145.201V48.2941ZM142.848 48.2941H144.025V49.4706H142.848V48.2941ZM142.848 47.1176H144.025V48.2941H142.848V47.1176ZM142.848 45.9412H144.025V47.1176H142.848V45.9412ZM142.848 44.7647H144.025V45.9412H142.848V44.7647ZM142.848 43.5882H144.025V44.7647H142.848V43.5882ZM142.848 42.4118H144.025V43.5882H142.848V42.4118ZM142.848 41.2353H144.025V42.4118H142.848V41.2353ZM142.848 40.0588H144.025V41.2353H142.848V40.0588ZM142.848 38.8824H144.025V40.0588H142.848V38.8824ZM142.848 37.7059H144.025V38.8824H142.848V37.7059ZM142.848 36.5294H144.025V37.7059H142.848V36.5294ZM144.025 36.5294H145.201V37.7059H144.025V36.5294ZM145.201 36.5294H146.378V37.7059H145.201V36.5294ZM145.201 37.7059H146.378V38.8824H145.201V37.7059ZM146.378 37.7059H147.554V38.8824H146.378V37.7059ZM146.378 38.8824H147.554V40.0588H146.378V38.8824ZM146.378 40.0588H147.554V41.2353H146.378V40.0588ZM146.378 41.2353H147.554V42.4118H146.378V41.2353ZM146.378 43.5882H147.554V44.7647H146.378V43.5882ZM146.378 44.7647H147.554V45.9412H146.378V44.7647ZM146.378 45.9412H147.554V47.1176H146.378V45.9412ZM145.201 45.9412H146.378V47.1176H145.201V45.9412ZM145.201 44.7647H146.378V45.9412H145.201V44.7647ZM145.201 43.5882H146.378V44.7647H145.201V43.5882ZM145.201 42.4118H146.378V43.5882H145.201V42.4118ZM145.201 41.2353H146.378V42.4118H145.201V41.2353ZM145.201 40.0588H146.378V41.2353H145.201V40.0588ZM145.201 38.8824H146.378V40.0588H145.201V38.8824ZM144.025 38.8824H145.201V40.0588H144.025V38.8824ZM144.025 37.7059H145.201V38.8824H144.025V37.7059ZM144.025 40.0588H145.201V41.2353H144.025V40.0588ZM144.025 41.2353H145.201V42.4118H144.025V41.2353ZM144.025 43.5882H145.201V44.7647H144.025V43.5882ZM144.025 44.7647H145.201V45.9412H144.025V44.7647ZM144.025 45.9412H145.201V47.1176H144.025V45.9412ZM144.025 42.4118H145.201V43.5882H144.025V42.4118ZM146.378 42.4118H147.554V43.5882H146.378V42.4118ZM147.554 42.4118H148.731V43.5882H147.554V42.4118ZM149.907 42.4118H151.084V43.5882H149.907V42.4118ZM151.084 42.4118H152.26V43.5882H151.084V42.4118ZM152.26 42.4118H153.437V43.5882H152.26V42.4118ZM153.437 42.4118H154.613V43.5882H153.437V42.4118ZM154.613 42.4118H155.79V43.5882H154.613V42.4118ZM155.79 42.4118H156.966V43.5882H155.79V42.4118ZM155.79 43.5882H156.966V44.7647H155.79V43.5882ZM155.79 44.7647H156.966V45.9412H155.79V44.7647ZM155.79 45.9412H156.966V47.1176H155.79V45.9412ZM154.613 45.9412H155.79V47.1176H154.613V45.9412ZM153.437 45.9412H154.613V47.1176H153.437V45.9412ZM152.26 45.9412H153.437V47.1176H152.26V45.9412ZM151.084 45.9412H152.26V47.1176H151.084V45.9412ZM149.907 44.7647H151.084V45.9412H149.907V44.7647ZM148.731 44.7647H149.907V45.9412H148.731V44.7647ZM147.554 44.7647H148.731V45.9412H147.554V44.7647ZM147.554 43.5882H148.731V44.7647H147.554V43.5882ZM148.731 42.4118H149.907V43.5882H148.731V42.4118ZM148.731 43.5882H149.907V44.7647H148.731V43.5882ZM147.554 45.9412H148.731V47.1176H147.554V45.9412ZM148.731 45.9412H149.907V47.1176H148.731V45.9412ZM149.907 45.9412H151.084V47.1176H149.907V45.9412ZM152.26 44.7647H153.437V45.9412H152.26V44.7647ZM152.26 43.5882H153.437V44.7647H152.26V43.5882ZM151.084 43.5882H152.26V44.7647H151.084V43.5882ZM149.907 43.5882H151.084V44.7647H149.907V43.5882ZM151.084 44.7647H152.26V45.9412H151.084V44.7647ZM153.437 43.5882H154.613V44.7647H153.437V43.5882ZM154.613 43.5882H155.79V44.7647H154.613V43.5882ZM154.613 44.7647H155.79V45.9412H154.613V44.7647ZM153.437 44.7647H154.613V45.9412H153.437V44.7647ZM154.613 47.1176H155.79V48.2941H154.613V47.1176ZM154.613 48.2941H155.79V49.4706H154.613V48.2941ZM154.613 49.4706H155.79V50.6471H154.613V49.4706ZM154.613 50.6471H155.79V51.8235H154.613V50.6471ZM155.79 50.6471H156.966V51.8235H155.79V50.6471ZM155.79 51.8235H156.966V53H155.79V51.8235ZM156.966 51.8235H158.142V53H156.966V51.8235ZM154.613 51.8235H155.79V53H154.613V51.8235ZM156.966 44.7647H158.142V45.9412H156.966V44.7647ZM156.966 43.5882H158.142V44.7647H156.966V43.5882ZM156.966 42.4118H158.142V43.5882H156.966V42.4118ZM156.966 41.2353H158.142V42.4118H156.966V41.2353ZM156.966 36.5294H158.142V37.7059H156.966V36.5294ZM156.966 37.7059H158.142V38.8824H156.966V37.7059ZM155.79 37.7059H156.966V38.8824H155.79V37.7059ZM155.79 38.8824H156.966V40.0588H155.79V38.8824ZM155.79 40.0588H156.966V41.2353H155.79V40.0588ZM155.79 41.2353H156.966V42.4118H155.79V41.2353ZM156.966 40.0588H158.142V41.2353H156.966V40.0588ZM156.966 38.8824H158.142V40.0588H156.966V38.8824ZM154.613 37.7059H155.79V38.8824H154.613V37.7059ZM154.613 38.8824H155.79V40.0588H154.613V38.8824ZM154.613 40.0588H155.79V41.2353H154.613V40.0588ZM154.613 41.2353H155.79V42.4118H154.613V41.2353ZM155.79 47.1176H156.966V48.2941H155.79V47.1176ZM155.79 48.2941H156.966V49.4706H155.79V48.2941ZM155.79 49.4706H156.966V50.6471H155.79V49.4706ZM156.966 49.4706H158.142V50.6471H156.966V49.4706ZM156.966 48.2941H158.142V49.4706H156.966V48.2941ZM156.966 47.1176H158.142V48.2941H156.966V47.1176ZM156.966 45.9412H158.142V47.1176H156.966V45.9412ZM156.966 50.6471H158.142V51.8235H156.966V50.6471ZM144.025 35.3529H145.201V36.5294H144.025V35.3529ZM145.201 35.3529H146.378V36.5294H145.201V35.3529ZM146.378 35.3529H147.554V36.5294H146.378V35.3529ZM147.554 35.3529H148.731V36.5294H147.554V35.3529ZM148.731 35.3529H149.907V36.5294H148.731V35.3529ZM151.084 35.3529H152.26V36.5294H151.084V35.3529ZM152.26 35.3529H153.437V36.5294H152.26V35.3529ZM153.437 35.3529H154.613V36.5294H153.437V35.3529ZM154.613 35.3529H155.79V36.5294H154.613V35.3529ZM155.79 35.3529H156.966V36.5294H155.79V35.3529ZM155.79 36.5294H156.966V37.7059H155.79V36.5294ZM154.613 36.5294H155.79V37.7059H154.613V36.5294ZM153.437 36.5294H154.613V37.7059H153.437V36.5294ZM152.26 36.5294H153.437V37.7059H152.26V36.5294ZM146.378 36.5294H147.554V37.7059H146.378V36.5294ZM147.554 36.5294H148.731V37.7059H147.554V36.5294ZM145.201 34.1765H146.378V35.3529H145.201V34.1765ZM146.378 34.1765H147.554V35.3529H146.378V34.1765ZM148.731 34.1765H149.907V35.3529H148.731V34.1765ZM149.907 34.1765H151.084V35.3529H149.907V34.1765ZM151.084 34.1765H152.26V35.3529H151.084V34.1765ZM152.26 34.1765H153.437V35.3529H152.26V34.1765ZM153.437 34.1765H154.613V35.3529H153.437V34.1765ZM154.613 34.1765H155.79V35.3529H154.613V34.1765ZM155.79 34.1765H156.966V35.3529H155.79V34.1765ZM154.613 33H155.79V34.1765H154.613V33ZM153.437 33H154.613V34.1765H153.437V33ZM152.26 33H153.437V34.1765H152.26V33ZM151.084 33H152.26V34.1765H151.084V33ZM149.907 33H151.084V34.1765H149.907V33ZM147.554 34.1765H148.731V35.3529H147.554V34.1765ZM146.378 33H147.554V34.1765H146.378V33ZM147.554 33H148.731V34.1765H147.554V33ZM148.731 33H149.907V34.1765H148.731V33ZM148.731 31.8235H149.907V33H148.731V31.8235ZM147.554 31.8235H148.731V33H147.554V31.8235ZM149.907 31.8235H151.084V33H149.907V31.8235ZM151.084 31.8235H152.26V33H151.084V31.8235ZM152.26 31.8235H153.437V33H152.26V31.8235ZM153.437 31.8235H154.613V33H153.437V31.8235ZM148.731 30.6471H149.907V31.8235H148.731V30.6471ZM149.907 30.6471H151.084V31.8235H149.907V30.6471ZM151.084 30.6471H152.26V31.8235H151.084V30.6471ZM152.26 30.6471H153.437V31.8235H152.26V30.6471ZM149.907 29.4706H151.084V30.6471H149.907V29.4706ZM151.084 29.4706H152.26V30.6471H151.084V29.4706ZM156.966 35.3529H158.142V36.5294H156.966V35.3529ZM142.848 35.3529H144.025V36.5294H142.848V35.3529ZM144.025 34.1765H145.201V35.3529H144.025V34.1765ZM145.201 33H146.378V34.1765H145.201V33ZM146.378 31.8235H147.554V33H146.378V31.8235ZM147.554 30.6471H148.731V31.8235H147.554V30.6471ZM148.731 29.4706H149.907V30.6471H148.731V29.4706ZM153.437 37.7059H154.613V38.8824H153.437V37.7059ZM153.437 38.8824H154.613V40.0588H153.437V38.8824ZM153.437 40.0588H154.613V41.2353H153.437V40.0588ZM153.437 41.2353H154.613V42.4118H153.437V41.2353ZM153.437 47.1176H154.613V48.2941H153.437V47.1176ZM153.437 48.2941H154.613V49.4706H153.437V48.2941ZM153.437 49.4706H154.613V50.6471H153.437V49.4706ZM153.437 50.6471H154.613V51.8235H153.437V50.6471ZM153.437 51.8235H154.613V53H153.437V51.8235ZM175.714 41.2353H176.891V42.4118H175.714V41.2353ZM175.714 40.0588H176.891V41.2353H175.714V40.0588ZM175.714 38.8824H176.891V40.0588H175.714V38.8824ZM175.714 37.7059H176.891V38.8824H175.714V37.7059ZM175.714 36.5294H176.891V37.7059H175.714V36.5294ZM175.714 35.3529H176.891V36.5294H175.714V35.3529ZM175.714 34.1765H176.891V35.3529H175.714V34.1765ZM175.714 33H176.891V34.1765H175.714V33ZM174.538 33H175.714V34.1765H174.538V33ZM174.538 31.8235H175.714V33H174.538V31.8235ZM174.538 30.6471H175.714V31.8235H174.538V30.6471ZM173.361 30.6471H174.538V31.8235H173.361V30.6471ZM173.361 31.8235H174.538V33H173.361V31.8235ZM173.361 33H174.538V34.1765H173.361V33ZM173.361 34.1765H174.538V35.3529H173.361V34.1765ZM173.361 35.3529H174.538V36.5294H173.361V35.3529ZM173.361 36.5294H174.538V37.7059H173.361V36.5294ZM173.361 37.7059H174.538V38.8824H173.361V37.7059ZM173.361 38.8824H174.538V40.0588H173.361V38.8824ZM173.361 40.0588H174.538V41.2353H173.361V40.0588ZM173.361 41.2353H174.538V42.4118H173.361V41.2353ZM173.361 42.4118H174.538V43.5882H173.361V42.4118ZM173.361 43.5882H174.538V44.7647H173.361V43.5882ZM174.538 42.4118H175.714V43.5882H174.538V42.4118ZM174.538 41.2353H175.714V42.4118H174.538V41.2353ZM174.538 40.0588H175.714V41.2353H174.538V40.0588ZM174.538 38.8824H175.714V40.0588H174.538V38.8824ZM174.538 37.7059H175.714V38.8824H174.538V37.7059ZM174.538 36.5294H175.714V37.7059H174.538V36.5294ZM174.538 35.3529H175.714V36.5294H174.538V35.3529ZM174.538 34.1765H175.714V35.3529H174.538V34.1765ZM172.185 34.1765H173.361V35.3529H172.185V34.1765ZM171.008 34.1765H172.185V35.3529H171.008V34.1765ZM172.185 33H173.361V34.1765H172.185V33ZM171.008 33H172.185V34.1765H171.008V33ZM169.832 33H171.008V34.1765H169.832V33ZM168.655 33H169.832V34.1765H168.655V33ZM167.479 33H168.655V34.1765H167.479V33ZM166.302 33H167.479V34.1765H166.302V33ZM165.126 33H166.302V34.1765H165.126V33ZM165.126 34.1765H166.302V35.3529H165.126V34.1765ZM165.126 35.3529H166.302V36.5294H165.126V35.3529ZM165.126 36.5294H166.302V37.7059H165.126V36.5294ZM165.126 37.7059H166.302V38.8824H165.126V37.7059ZM165.126 38.8824H166.302V40.0588H165.126V38.8824ZM165.126 40.0588H166.302V41.2353H165.126V40.0588ZM165.126 41.2353H166.302V42.4118H165.126V41.2353ZM166.302 41.2353H167.479V42.4118H166.302V41.2353ZM166.302 42.4118H167.479V43.5882H166.302V42.4118ZM167.479 42.4118H168.655V43.5882H167.479V42.4118ZM168.655 42.4118H169.832V43.5882H168.655V42.4118ZM169.832 42.4118H171.008V43.5882H169.832V42.4118ZM171.008 42.4118H172.185V43.5882H171.008V42.4118ZM171.008 41.2353H172.185V42.4118H171.008V41.2353ZM169.832 41.2353H171.008V42.4118H169.832V41.2353ZM168.655 41.2353H169.832V42.4118H168.655V41.2353ZM167.479 41.2353H168.655V42.4118H167.479V41.2353ZM172.185 41.2353H173.361V42.4118H172.185V41.2353ZM172.185 40.0588H173.361V41.2353H172.185V40.0588ZM171.008 40.0588H172.185V41.2353H171.008V40.0588ZM172.185 38.8824H173.361V40.0588H172.185V38.8824ZM172.185 35.3529H173.361V36.5294H172.185V35.3529ZM172.185 36.5294H173.361V37.7059H172.185V36.5294ZM172.185 37.7059H173.361V38.8824H172.185V37.7059ZM172.185 42.4118H173.361V43.5882H172.185V42.4118ZM172.185 43.5882H173.361V44.7647H172.185V43.5882ZM172.185 44.7647H173.361V45.9412H172.185V44.7647ZM171.008 44.7647H172.185V45.9412H171.008V44.7647ZM169.832 44.7647H171.008V45.9412H169.832V44.7647ZM168.655 44.7647H169.832V45.9412H168.655V44.7647ZM167.479 44.7647H168.655V45.9412H167.479V44.7647ZM167.479 43.5882H168.655V44.7647H167.479V43.5882ZM166.302 43.5882H167.479V44.7647H166.302V43.5882ZM166.302 44.7647H167.479V45.9412H166.302V44.7647ZM168.655 43.5882H169.832V44.7647H168.655V43.5882ZM169.832 43.5882H171.008V44.7647H169.832V43.5882ZM171.008 43.5882H172.185V44.7647H171.008V43.5882ZM172.185 29.4706H173.361V30.6471H172.185V29.4706ZM172.185 30.6471H173.361V31.8235H172.185V30.6471ZM172.185 31.8235H173.361V33H172.185V31.8235ZM171.008 31.8235H172.185V33H171.008V31.8235ZM171.008 30.6471H172.185V31.8235H171.008V30.6471ZM171.008 29.4706H172.185V30.6471H171.008V29.4706ZM169.832 29.4706H171.008V30.6471H169.832V29.4706ZM168.655 29.4706H169.832V30.6471H168.655V29.4706ZM167.479 29.4706H168.655V30.6471H167.479V29.4706ZM166.302 29.4706H167.479V30.6471H166.302V29.4706ZM165.126 29.4706H166.302V30.6471H165.126V29.4706ZM163.949 29.4706H165.126V30.6471H163.949V29.4706ZM162.773 29.4706H163.949V30.6471H162.773V29.4706ZM161.596 29.4706H162.773V30.6471H161.596V29.4706ZM161.596 30.6471H162.773V31.8235H161.596V30.6471ZM161.596 31.8235H162.773V33H161.596V31.8235ZM161.596 33H162.773V34.1765H161.596V33ZM162.773 33H163.949V34.1765H162.773V33ZM162.773 31.8235H163.949V33H162.773V31.8235ZM163.949 31.8235H165.126V33H163.949V31.8235ZM165.126 31.8235H166.302V33H165.126V31.8235ZM166.302 31.8235H167.479V33H166.302V31.8235ZM167.479 31.8235H168.655V33H167.479V31.8235ZM168.655 31.8235H169.832V33H168.655V31.8235ZM169.832 31.8235H171.008V33H169.832V31.8235ZM169.832 30.6471H171.008V31.8235H169.832V30.6471ZM168.655 30.6471H169.832V31.8235H168.655V30.6471ZM167.479 30.6471H168.655V31.8235H167.479V30.6471ZM166.302 30.6471H167.479V31.8235H166.302V30.6471ZM165.126 30.6471H166.302V31.8235H165.126V30.6471ZM163.949 30.6471H165.126V31.8235H163.949V30.6471ZM162.773 34.1765H163.949V35.3529H162.773V34.1765ZM162.773 35.3529H163.949V36.5294H162.773V35.3529ZM162.773 30.6471H163.949V31.8235H162.773V30.6471ZM163.949 33H165.126V34.1765H163.949V33ZM163.949 34.1765H165.126V35.3529H163.949V34.1765ZM163.949 35.3529H165.126V36.5294H163.949V35.3529ZM163.949 36.5294H165.126V37.7059H163.949V36.5294ZM163.949 37.7059H165.126V38.8824H163.949V37.7059ZM163.949 38.8824H165.126V40.0588H163.949V38.8824ZM163.949 40.0588H165.126V41.2353H163.949V40.0588ZM163.949 41.2353H165.126V42.4118H163.949V41.2353ZM162.773 41.2353H163.949V42.4118H162.773V41.2353ZM162.773 40.0588H163.949V41.2353H162.773V40.0588ZM162.773 38.8824H163.949V40.0588H162.773V38.8824ZM162.773 37.7059H163.949V38.8824H162.773V37.7059ZM161.596 36.5294H162.773V37.7059H161.596V36.5294ZM161.596 35.3529H162.773V36.5294H161.596V35.3529ZM161.596 34.1765H162.773V35.3529H161.596V34.1765ZM161.596 37.7059H162.773V38.8824H161.596V37.7059ZM161.596 38.8824H162.773V40.0588H161.596V38.8824ZM162.773 36.5294H163.949V37.7059H162.773V36.5294ZM161.596 40.0588H162.773V41.2353H161.596V40.0588ZM161.596 41.2353H162.773V42.4118H161.596V41.2353ZM161.596 42.4118H162.773V43.5882H161.596V42.4118ZM161.596 43.5882H162.773V44.7647H161.596V43.5882ZM162.773 43.5882H163.949V44.7647H162.773V43.5882ZM163.949 43.5882H165.126V44.7647H163.949V43.5882ZM165.126 43.5882H166.302V44.7647H165.126V43.5882ZM165.126 44.7647H166.302V45.9412H165.126V44.7647ZM163.949 44.7647H165.126V45.9412H163.949V44.7647ZM162.773 44.7647H163.949V45.9412H162.773V44.7647ZM161.596 44.7647H162.773V45.9412H161.596V44.7647ZM162.773 42.4118H163.949V43.5882H162.773V42.4118ZM163.949 42.4118H165.126V43.5882H163.949V42.4118ZM165.126 42.4118H166.302V43.5882H165.126V42.4118ZM161.596 45.9412H162.773V47.1176H161.596V45.9412ZM161.596 47.1176H162.773V48.2941H161.596V47.1176ZM161.596 48.2941H162.773V49.4706H161.596V48.2941ZM161.596 49.4706H162.773V50.6471H161.596V49.4706ZM161.596 50.6471H162.773V51.8235H161.596V50.6471ZM161.596 51.8235H162.773V53H161.596V51.8235ZM162.773 51.8235H163.949V53H162.773V51.8235ZM163.949 51.8235H165.126V53H163.949V51.8235ZM165.126 51.8235H166.302V53H165.126V51.8235ZM165.126 50.6471H166.302V51.8235H165.126V50.6471ZM165.126 49.4706H166.302V50.6471H165.126V49.4706ZM165.126 48.2941H166.302V49.4706H165.126V48.2941ZM165.126 47.1176H166.302V48.2941H165.126V47.1176ZM165.126 45.9412H166.302V47.1176H165.126V45.9412ZM163.949 45.9412H165.126V47.1176H163.949V45.9412ZM162.773 45.9412H163.949V47.1176H162.773V45.9412ZM162.773 47.1176H163.949V48.2941H162.773V47.1176ZM162.773 48.2941H163.949V49.4706H162.773V48.2941ZM162.773 49.4706H163.949V50.6471H162.773V49.4706ZM162.773 50.6471H163.949V51.8235H162.773V50.6471ZM163.949 50.6471H165.126V51.8235H163.949V50.6471ZM163.949 49.4706H165.126V50.6471H163.949V49.4706ZM163.949 48.2941H165.126V49.4706H163.949V48.2941ZM163.949 47.1176H165.126V48.2941H163.949V47.1176ZM175.714 47.1176H176.891V48.2941H175.714V47.1176ZM175.714 48.2941H176.891V49.4706H175.714V48.2941ZM175.714 49.4706H176.891V50.6471H175.714V49.4706ZM175.714 50.6471H176.891V51.8235H175.714V50.6471ZM175.714 51.8235H176.891V53H175.714V51.8235ZM174.538 51.8235H175.714V53H174.538V51.8235ZM173.361 51.8235H174.538V53H173.361V51.8235ZM172.185 51.8235H173.361V53H172.185V51.8235ZM172.185 50.6471H173.361V51.8235H172.185V50.6471ZM172.185 49.4706H173.361V50.6471H172.185V49.4706ZM172.185 48.2941H173.361V49.4706H172.185V48.2941ZM173.361 48.2941H174.538V49.4706H173.361V48.2941ZM174.538 47.1176H175.714V48.2941H174.538V47.1176ZM174.538 48.2941H175.714V49.4706H174.538V48.2941ZM174.538 49.4706H175.714V50.6471H174.538V49.4706ZM173.361 49.4706H174.538V50.6471H173.361V49.4706ZM173.361 50.6471H174.538V51.8235H173.361V50.6471ZM174.538 50.6471H175.714V51.8235H174.538V50.6471ZM173.361 47.1176H174.538V48.2941H173.361V47.1176ZM172.185 47.1176H173.361V48.2941H172.185V47.1176ZM172.185 45.9412H173.361V47.1176H172.185V45.9412ZM173.361 45.9412H174.538V47.1176H173.361V45.9412ZM175.714 45.9412H176.891V47.1176H175.714V45.9412ZM174.538 45.9412H175.714V47.1176H174.538V45.9412ZM174.538 44.7647H175.714V45.9412H174.538V44.7647ZM173.361 44.7647H174.538V45.9412H173.361V44.7647ZM169.832 45.9412H171.008V47.1176H169.832V45.9412ZM171.008 45.9412H172.185V47.1176H171.008V45.9412ZM171.008 47.1176H172.185V48.2941H171.008V47.1176ZM185.05 51.8235H186.227V53H185.05V51.8235ZM186.227 51.8235H187.403V53H186.227V51.8235ZM187.403 51.8235H188.58V53H187.403V51.8235ZM188.58 51.8235H189.756V53H188.58V51.8235ZM188.58 50.6471H189.756V51.8235H188.58V50.6471ZM187.403 50.6471H188.58V51.8235H187.403V50.6471ZM186.227 50.6471H187.403V51.8235H186.227V50.6471ZM185.05 50.6471H186.227V51.8235H185.05V50.6471ZM185.05 49.4706H186.227V50.6471H185.05V49.4706ZM185.05 48.2941H186.227V49.4706H185.05V48.2941ZM185.05 47.1176H186.227V48.2941H185.05V47.1176ZM185.05 45.9412H186.227V47.1176H185.05V45.9412ZM185.05 44.7647H186.227V45.9412H185.05V44.7647ZM185.05 43.5882H186.227V44.7647H185.05V43.5882ZM185.05 42.4118H186.227V43.5882H185.05V42.4118ZM186.227 42.4118H187.403V43.5882H186.227V42.4118ZM186.227 41.2353H187.403V42.4118H186.227V41.2353ZM186.227 40.0588H187.403V41.2353H186.227V40.0588ZM187.403 40.0588H188.58V41.2353H187.403V40.0588ZM187.403 41.2353H188.58V42.4118H187.403V41.2353ZM188.58 41.2353H189.756V42.4118H188.58V41.2353ZM188.58 42.4118H189.756V43.5882H188.58V42.4118ZM188.58 43.5882H189.756V44.7647H188.58V43.5882ZM188.58 44.7647H189.756V45.9412H188.58V44.7647ZM188.58 45.9412H189.756V47.1176H188.58V45.9412ZM188.58 47.1176H189.756V48.2941H188.58V47.1176ZM188.58 48.2941H189.756V49.4706H188.58V48.2941ZM188.58 49.4706H189.756V50.6471H188.58V49.4706ZM187.403 49.4706H188.58V50.6471H187.403V49.4706ZM187.403 48.2941H188.58V49.4706H187.403V48.2941ZM187.403 47.1176H188.58V48.2941H187.403V47.1176ZM187.403 45.9412H188.58V47.1176H187.403V45.9412ZM187.403 44.7647H188.58V45.9412H187.403V44.7647ZM187.403 43.5882H188.58V44.7647H187.403V43.5882ZM187.403 42.4118H188.58V43.5882H187.403V42.4118ZM186.227 43.5882H187.403V44.7647H186.227V43.5882ZM186.227 44.7647H187.403V45.9412H186.227V44.7647ZM186.227 45.9412H187.403V47.1176H186.227V45.9412ZM186.227 47.1176H187.403V48.2941H186.227V47.1176ZM186.227 48.2941H187.403V49.4706H186.227V48.2941ZM186.227 49.4706H187.403V50.6471H186.227V49.4706ZM185.05 29.4706H186.227V30.6471H185.05V29.4706ZM185.05 30.6471H186.227V31.8235H185.05V30.6471ZM185.05 33H186.227V34.1765H185.05V33ZM185.05 34.1765H186.227V35.3529H185.05V34.1765ZM185.05 35.3529H186.227V36.5294H185.05V35.3529ZM185.05 36.5294H186.227V37.7059H185.05V36.5294ZM185.05 37.7059H186.227V38.8824H185.05V37.7059ZM185.05 38.8824H186.227V40.0588H185.05V38.8824ZM185.05 40.0588H186.227V41.2353H185.05V40.0588ZM185.05 41.2353H186.227V42.4118H185.05V41.2353ZM186.227 36.5294H187.403V37.7059H186.227V36.5294ZM186.227 35.3529H187.403V36.5294H186.227V35.3529ZM186.227 34.1765H187.403V35.3529H186.227V34.1765ZM186.227 33H187.403V34.1765H186.227V33ZM186.227 31.8235H187.403V33H186.227V31.8235ZM185.05 31.8235H186.227V33H185.05V31.8235ZM186.227 29.4706H187.403V30.6471H186.227V29.4706ZM187.403 29.4706H188.58V30.6471H187.403V29.4706ZM187.403 30.6471H188.58V31.8235H187.403V30.6471ZM188.58 31.8235H189.756V33H188.58V31.8235ZM188.58 30.6471H189.756V31.8235H188.58V30.6471ZM188.58 29.4706H189.756V30.6471H188.58V29.4706ZM188.58 33H189.756V34.1765H188.58V33ZM188.58 34.1765H189.756V35.3529H188.58V34.1765ZM188.58 35.3529H189.756V36.5294H188.58V35.3529ZM188.58 36.5294H189.756V37.7059H188.58V36.5294ZM188.58 37.7059H189.756V38.8824H188.58V37.7059ZM188.58 38.8824H189.756V40.0588H188.58V38.8824ZM188.58 40.0588H189.756V41.2353H188.58V40.0588ZM187.403 38.8824H188.58V40.0588H187.403V38.8824ZM187.403 37.7059H188.58V38.8824H187.403V37.7059ZM187.403 36.5294H188.58V37.7059H187.403V36.5294ZM186.227 37.7059H187.403V38.8824H186.227V37.7059ZM186.227 38.8824H187.403V40.0588H186.227V38.8824ZM187.403 35.3529H188.58V36.5294H187.403V35.3529ZM187.403 31.8235H188.58V33H187.403V31.8235ZM187.403 33H188.58V34.1765H187.403V33ZM187.403 34.1765H188.58V35.3529H187.403V34.1765ZM186.227 30.6471H187.403V31.8235H186.227V30.6471ZM189.756 29.4706H190.933V30.6471H189.756V29.4706ZM189.756 30.6471H190.933V31.8235H189.756V30.6471ZM189.756 31.8235H190.933V33H189.756V31.8235ZM189.756 33H190.933V34.1765H189.756V33ZM190.933 33H192.109V34.1765H190.933V33ZM192.109 33H193.286V34.1765H192.109V33ZM193.286 33H194.462V34.1765H193.286V33ZM193.286 31.8235H194.462V33H193.286V31.8235ZM193.286 30.6471H194.462V31.8235H193.286V30.6471ZM193.286 29.4706H194.462V30.6471H193.286V29.4706ZM192.109 29.4706H193.286V30.6471H192.109V29.4706ZM190.933 29.4706H192.109V30.6471H190.933V29.4706ZM190.933 30.6471H192.109V31.8235H190.933V30.6471ZM192.109 30.6471H193.286V31.8235H192.109V30.6471ZM192.109 31.8235H193.286V33H192.109V31.8235ZM190.933 31.8235H192.109V33H190.933V31.8235ZM183.874 29.4706H185.05V30.6471H183.874V29.4706ZM182.698 29.4706H183.874V30.6471H182.698V29.4706ZM181.521 29.4706H182.698V30.6471H181.521V29.4706ZM180.345 29.4706H181.521V30.6471H180.345V29.4706ZM180.345 30.6471H181.521V31.8235H180.345V30.6471ZM180.345 31.8235H181.521V33H180.345V31.8235ZM181.521 31.8235H182.698V33H181.521V31.8235ZM182.698 33H183.874V34.1765H182.698V33ZM181.521 33H182.698V34.1765H181.521V33ZM180.345 33H181.521V34.1765H180.345V33ZM183.874 33H185.05V34.1765H183.874V33ZM183.874 31.8235H185.05V33H183.874V31.8235ZM183.874 30.6471H185.05V31.8235H183.874V30.6471ZM182.698 30.6471H183.874V31.8235H182.698V30.6471ZM182.698 31.8235H183.874V33H182.698V31.8235ZM181.521 30.6471H182.698V31.8235H181.521V30.6471Z" fill="white"/>
</g>
<defs>
<filter id="filter0_d_5_29" x="0" y="0" width="301" height="90" filterUnits="userSpaceOnUse" color-interpolation-filters="sRGB">
<feFlood flood-opacity="0" result="BackgroundImageFix"/>
<feColorMatrix in="SourceAlpha" type="matrix" values="0 0 0 0 0 0 0 0 0 0 0 0 0 0 0 0 0 0 127 0" result="hardAlpha"/>
<feOffset dy="4"/>
<feGaussianBlur stdDeviation="2"/>
<feComposite in2="hardAlpha" operator="out"/>
<feColorMatrix type="matrix" values="0 0 0 0 0.748333 0 0 0 0 0.748333 0 0 0 0 0.748333 0 0 0 0.25 0"/>
<feBlend mode="normal" in2="BackgroundImageFix" result="effect1_dropShadow_5_29"/>
<feBlend mode="normal" in="SourceGraphic" in2="effect1_dropShadow_5_29" result="shape"/>
</filter>
</defs>
</svg>
